# xmcd
#
# Track frame offsets:
#	150
#	21225
#	43147
#	58556
#	83202
#	100532
#	116719
#	134451
#	155106
#	173511
#	191367
#	209796
#
# Disc length: 3042 seconds
#
# Revision: 1
# Processed by: cddbd v1.5.2PL0 Copyright (c) Steve Scherf et al.
# Submitted via: audiograbber 1.83.01
#
DISCID=a50be00c
DTITLE=Barry P. Foley - Daddy Was A Factory Man
DYEAR=2005
DGENRE=Country
TTITLE0=Remember The Alamo
TTITLE1=Traffic Jam Song
TTITLE2=Down To The Islands
TTITLE3=When All Your Dreams Come True
TTITLE4=Leaving Texas
TTITLE5=Pretty Girls
TTITLE6=Got No Mandolin Blues
TTITLE7=Daddy Was A Factory Man
TTITLE8=News From Back Home
TTITLE9=Nafta Blues
TTITLE10=Back When I Was A Cowboy
TTITLE11=Daddy Won't You Buy Me A Guitar
EXTD=YEAR: 2005
EXTT0=
EXTT1=
EXTT2=
EXTT3=
EXTT4=
EXTT5=
EXTT6=
EXTT7=
EXTT8=
EXTT9=
EXTT10=
EXTT11=
PLAYORDER=
